<?xml version="1.0" encoding="UTF-8" standalone="no"?>
<!-- Created with Inkscape (http://www.inkscape.org/) -->

<svg
   width="63.999996"
   height="63.999996"
   viewBox="0 0 16.933332 16.933332"
   version="1.1"
   id="svg1"
   xmlns="http://www.w3.org/2000/svg"
   xmlns:svg="http://www.w3.org/2000/svg">
  <defs
     id="defs1">
    <filter
       style="color-interpolation-filters:sRGB"
       id="filter31"
       x="-0.074999999"
       y="-0.075000004"
       width="1.15"
       height="1.15">
      <feGaussianBlur
         stdDeviation="0.4299479"
         id="feGaussianBlur31" />
    </filter>
  </defs>
  <g
     id="g30"
     style="display:inline">
    <path
       id="path31"
       style="display:inline;fill:#000000;fill-opacity:1;stroke-width:2.2041;filter:url(#filter31)"
       d="M 2.1166666,2.1166666 V 15.874999 H 15.875 V 2.1166666 Z M 3.175,3.1749999 h 7.9375 V 6.8791665 H 3.175 Z m 8.995833,0 h 2.645834 V 6.8791665 H 12.170833 Z M 3.175,7.9374998 H 6.3499999 V 11.112499 H 3.175 Z m 4.2333333,0 H 10.054167 V 11.112499 H 7.4083333 Z m 3.7041667,0 h 3.704167 V 11.112499 H 11.1125 Z M 3.175,12.170832 h 11.641667 v 2.645834 H 3.175 Z" />
    <path
       id="path30"
       style="display:inline;fill:#ffffff;stroke-width:2.2041"
       d="M 1.5875,1.5875 V 15.345833 H 15.345833 V 1.5875 Z M 2.6458333,2.6458333 H 10.583333 V 6.3499999 H 2.6458333 Z m 8.9958327,0 H 14.2875 V 6.3499999 H 11.641666 Z M 2.6458333,7.4083332 H 5.8208332 V 10.583333 H 2.6458333 Z m 4.2333332,0 H 9.5249998 V 10.583333 H 6.8791665 Z m 3.7041665,0 H 14.2875 V 10.583333 H 10.583333 Z M 2.6458333,11.641666 H 14.2875 V 14.2875 H 2.6458333 Z" />
  </g>
</svg>
